<svg xmlns="http://www.w3.org/2000/svg" viewBox="52 0 152 60">
  <path fill="#f68b11" d="M87.6 29.88c.07.47.92.45 1.3.45.5 0 1.03-.03 1.46-.08.67-.08.97-.43 1.24-.94.27-.5 1.3-1.16 1.9-1.5 1.02-.54 1.96-1.13 3.16-.9 1.29.25 2.95.77 4.02 1.3 1.58.78 2.26 1.1 3.56 1.42 1.63.39 3.38.6 3.52.39.13-.19-.4-.23-.84-.47-.25-.14-.61-.54-.47-.62.16-.08.65.27 1.64.43 1 .17 2.23.22 2.24.02s-.64-.19-1.17-.44c-.58-.26-.94-.59-.8-.67.1-.07.75.2 1.78.32 1.13.13 2.15 0 2.21-.18.07-.2-.53-.16-1.2-.42-.69-.26-.97-.62-.87-.7s2.24.64 4.63.15a34 34 0 0 0 6.17-2.1 13 13 0 0 1 5.34-1c1.7.18 2.47.67 3.69 1.43 1.95 1.21 2.74 2.08 3.32 2.6.68.61 1.34 1.29 2 1.57.8.33 1.34.3 2.28.3.52.01 1.25 0 1.85.17.92.26 1.37.61 1.77.9.56.4.84.78 1.65 1.6 1.2 1.17 2.72 3.1 3.2 3.56.49.5.91.88 1.3.99.42.1.98.1 1.2 0 .2-.08.4-.32.3-.72-.1-.42-.51-1.36-.69-1.56s-.47-.3-.88-.43c-.34-.1-.6-.3-.9-.56-.38-.32-1.28-1.78-2.1-3.54 1.74.24 3.43.66 5.36 1.54 1.48.68 2.28 1.26 3.54 2.24 1.32 1.02 3.07 2.75 3.6 3.16.55.43 1.11.74 1.51.8.42.05.6.06.81-.07.18-.1.37-.3.28-.74-.08-.43-.4-1.29-.51-1.56a1.5 1.5 0 0 0-.4-.64c-.2-.17-.56-.25-.97-.35l-.88-.23a11 11 0 0 1-2.4-2.93 22 22 0 0 1-1.63-3.4.3.3 0 0 0-.27-.22 22 22 0 0 1-2.58-.58c-1.8-.53-3.1-1.11-3.3-1.37-.26-.32 1.03.01.85-.39-.13-.28-1.51-.4-2.54-1.24-.44-.35-1.05-.77-.84-1.02.13-.15 1.45.27 1.25-.19-.14-.31-1.35-.77-1.94-1.36-.64-.64-.71-.92-.9-1.34-.21-.48 1.31.17 1.23-.3-.06-.33-1.38-.72-1.96-1.43-.23-.28-.55-.63-.73-.94l-.5-.82c.36.04.9.17 1.44.56.82.59 1.74.88 2.89.92.86.04 3.13-.3 3.16-.6.02-.25-.34-.23-.68-.45-.35-.23-.57-.42-.5-.55.08-.14.72.15 1.44.2.79.07 1.34.1 2.13-.09.88-.21 1.83-.66 1.84-.85s-.25-.17-.55-.34c-.36-.2-.53-.4-.43-.51.13-.15 1.46.2 2.63-.13.55-.17.73-.32.7-.46s-.19-.09-.47-.25c-.22-.12-.36-.27-.25-.4.12-.14 1.31.12 2.25-.26.68-.27 1.16-.56 1.1-.78-.05-.14-.32-.1-.53-.16-.2-.06-.47-.12-.4-.3s1.48-.14 2.21-.5a13 13 0 0 0 2.04-1.74c.56-.55 1.1-1.17.94-1.36-.15-.17-4.7.97-6.69 1.7-2.46.9-5.18 2.05-8.16 2.5-3.01.45-3.89.05-5.69-.1-1.98-.16-3.04-.03-3.6.02a9 9 0 0 0-1.62-.87 18 18 0 0 0-4.3-1.04c-3.12-.38-5.34-.46-7.62-.7a87 87 0 0 1-10.08-1.54c-1.1-.24-1.9-.56-2.5-.78-.58-.23-1.01-.44-1.56-.74s-.83-.58-.83-.58c.46-.38.8-.74 1.88-1.1.71-.25 1.6-.08 1.7-.3.07-.15-.27-.43-1.3-.6-1.03-.15-1.63 0-1.76-.15-.13-.16.1-.3.85-.44.73-.15 1.18 0 1.25-.2.06-.16-.27-.38-1.53-.5-.78-.06-1.61.04-1.7-.14-.07-.2.46-.34 1-.41.82-.11 1.33.05 1.33-.21 0-.22-1.01-.53-2.26-.62-.9-.06-1.48.05-2.43.19a5 5 0 0 1-1.89.02 3 3 0 0 1-1.13-.55 4 4 0 0 0-1.38-.68c-.82-.2-1.33-.04-1.67.02-.48.08-3.16.9-3.92 1.2-.77.3-1.12.52-1.44.78s-.49.44-.6.76c-.15.38-.03.92-.2 1.24a.7.7 0 0 1-.63.43q-.28.04-.8.24c-.5.2-2.46 1.05-2.46 1.05-.37.1-.48.18-.6.3q-.18.13-.11.43c.07.26.4.38.4.38s-.02.57.6.96c.32.2.75.58 1.37.79.81.24 1.77-.03 1.77-.03s-.37.22-.52.39q-.31.37-.37 1.54c0 .2-.02.38.18.57.1.1.39.07.47 0s.2-.27.2-.27.65.24.86.26q.3.04.5-.05c.14-.06.52-.24.8-.35s2.26-.75 2.66-.81c.38-.06.56.01.94-.01.43-.02.61-.15 1-.05a3.5 3.5 0 0 1 1.3.73c.35.34.7 1 .7 1q.04.07.01.27c-.02.14-.27.53-.5 1.2-.26.78-.37 1.43-.13 1.45.13.01.23-.36.58-.69s.62-.45.72-.4.08.64-.16 1.14c-.3.63-.53.94-.48 1.08.03.07.26.07.6-.07.25-.1.4-.4.48-.34.1.07-.18.62-.47 1.1-.21.37-.6.65-.55.87.03.16.35.2.64.17.31-.05.67-.27.7-.13.03.1-.2.52-.6.94-.36.4-.68.75-1.1.81-2.27.23-5.55.55-5.99.62-.7.1-1.51.17-2.1.65-.8.67-1.23.8-2.13 1.36-.95.59-1.02.67-2.03 1.1-.49.2-1.3.39-1.54.87-.12.26-.24.52-.18.9.06.37.85.35 1.16.35q.64-.01 1.18-.06c.4-.04.79-.49 1-.77.29-.37.76-.75 1.33-1.03.72-.35 1.6-.44 2.44-.34-1.02 1.02-1.61 1.68-2.64 2.31-1.23.77-1.32.95-2.5 1.45-.6.26-1.6.48-1.9 1.08-.16.32-.18.63-.1 1.1"/>
  <path fill="#c4122e" d="m96.57 9.94.99-.62s.25-.13.34-.07q.13.09.13.18.01.12-.14.22c-.12.06-.23.04-.37.12s-.13.45-.28.52c-.11.07-.52.16-1.1.35-.56.17-1.04.42-1.2.42-.14 0-.28-.05-.32-.12s.1-.34.18-.43q.1-.17.72-.5c.16-.07.28-.25.33-.31.05-.07.17-.31.26-.4.09-.08.2-.18.36-.15.24.06.38.22.38.22s-.04.18-.1.3c-.08.14-.18.27-.18.27M88.22 29.5c-.02-.25.02-.3.07-.4.12-.24.7-.45 1.1-.6l.47-.18c.88-.37 1.2-.59 1.75-.95l.84-.54c.98-.6 1.59-1.22 2.43-2.07l.6-.6c.4-.4 1.1-.48 1.79-.57l.42-.05c.73-.11 4-.3 4.41-.5a5.6 5.6 0 0 0 2.37-2.21c.18-.35-.34-.55-.38-.82-.03-.28.52-.57.52-.86 0-.35-.59-.29-.6-.6-.05-.57.83-1.35.8-1.8-.03-.27-.98.12-1.11-.15-.16-.33-.2-.62-.24-.98-.1-1.2.4-1.99.42-2.26.01-.15-.2-.11-.46.09-.25.19-.28.26-.37.27-.29.03-.1-.69.65-1.16.43-.27.96-.29 1.16-.16.2.14-.3.96-.44 1.58-.2.81-.29 1.7-.15 1.77s.46-.07.77-.32c.25-.2.48-.5.6-.5.26.03.2 1-.02 1.67-.33.94-1.07 1.49-.83 1.7.11.1.41.26.98.37.49.1.9-.01.92.16.06.33-1.62.82-1.6 1.26 0 .44 1.51 1.6 1.88 1.42.38-.19-.98-.76-.5-1.56.49-.8 1.53-1.22 1.4-1.75-.1-.43-2.02.34-2.05-.1 0-.2.45-.44.9-.75.5-.34.98-.75.85-1.02-.14-.26-1.15.34-1.35.1-.12-.15.2-.77.44-1.39.17-.47.27-.93.2-1.2-.08-.3-1.49.65-1.77.44s1.17-2.67 1.04-2.87c-.18-.26-.99.3-2 .2-1.26-.15-2.29-.97-2.16-1.13s1.29.44 3.01.15c1.73-.3 2.57-1.19 2.43-1.34-.2-.21-1.25.6-2.98.47a4 4 0 0 1-1.79-.55c-.78-.44-1.11-.88-1.28-.86-.13 0-.3.37-.47.58q-.23.34-.36.36c-.09 0-.11-.05-.28-.23-.16-.16-.2-.25-.28-.23-.14.04-.06.53-.33 1.2-.21.53-.32.65-.43.73a.6.6 0 0 1-.46.1c-.15 0-.17-.1-.38-.11s-3.37 1-3.56 1.07l-.55.25a1 1 0 0 1-.7-.01q-.33-.1-.33-.12c0-.02.1-.18.23-.35s.31-.32.31-.32.07.18.2.2c.07.01.4.04.6-.03.17-.05 3.57-1.14 3.85-1.2a.8.8 0 0 0 .56-.58c.04-.22.08-.92-.11-1.08-.2-.17-.84-.35-1.51-.32-.72.03-1.42.38-1.42.38s-1.53.88-1.74.94c-.16.06-.55.14-.94.09-.24-.03-.4.1-.68.01-.34-.1-.4-.2-.4-.26s.13-.3.35-.57c.21-.28.42-.46.41-.5q.01-.09-.19-.09c-.18 0-.38.05-.48.15-.2.19-.37.4-.42.45s-.16.11-.25.07c-.07-.02-.12-.17-.1-.26.04-.13.35-.4.33-.51-.02-.12-.33-.2-.6-.27-.36-.08-.68-.06-.7-.1 0-.04.1-.17.2-.26.11-.1.28-.13.28-.19s-.1-.07-.18-.1c-.1-.02-.18 0-.18-.04a12 12 0 0 1 2.38-.95c.42-.06.74-.28.92-.51q.22-.3.24-.77c.01-.23-.01-.55.11-.77a2 2 0 0 1 .59-.6c.32-.25.54-.36 1.1-.59s3.41-1.1 3.84-1.17l.17-.03s.72-.14 1.33 0c.22.06.9.31.91.52 0 .08-.2.22-.53.32-.35.1-.71-.1-.72.11 0 .11 1.32.68 3.58.68 1.9 0 2.79-.53 2.83-.28.01.12-.22.54-.97.8-.82.26-1.43.28-1.38.52.03.17.85.28 1.72.2.9-.08 1.55-.35 1.62-.2.07.13-.29.58-1.27.88-.83.24-1.6.26-1.48.52.09.2.9.3 1.75.2 1-.13 1.53-.7 1.61-.45.07.18-.57.75-1.14 1.11-.77.5-1.32.75-2.25.83-1.1.1-1.82 0-3.48-1.06-1.45-.94-2.76-2.37-2.96-2.29-.18.09.54 1.33 2.26 2.77 1.5 1.25 2.13 1.54 3.06 1.61a5 5 0 0 0 2.44-.3c.68-.3 1.37-.72 1.37-.72s1.13.8 2.1 1.23c.7.32 2.12.8 3.14 1.03 2.68.6 6.1 1.13 10.16 1.56q1.4.14 2.87.25c1.44.1 2.92.22 4.74.44.85.1 2.8.44 4.12 1 .48.2 1.35.68 1.77 1 .63-.09 1.72-.2 2.95-.14 1.12.05 3.22.5 5.31.32 2.81-.24 5.27-1.07 7.9-2.12a52 52 0 0 1 5.8-1.9c.36-.07.78-.17.77.05 0 .14-.33.42-.43.48-.36.21-.47.1-1.11.26-.87.2-1.26.49-1.23.56.03.06.54-.12 1.03-.17q.53-.05.58.12c.02.1-.17.2-.48.35-.58.3-1.8.34-2.3.4-.78.1-1.38.25-1.4.4-.02.12.34.32.7.48.4.18.82.17.83.34 0 .12-.4.22-.84.26-.6.05-1.01-.12-1.72-.15-1.04-.05-1.56.04-1.6.17-.04.12.18.35.5.62.34.28.83.4.7.6-.1.14-1.1-.07-1.9-.1-1.19-.04-1.75.04-1.84.21s.15.45.6.72c.52.32 1.02.38.98.6s-2.03.41-3.3.02c-1.4-.44-2.59-.5-2.7-.34s.08.59.56 1.09c.46.49 1.06.6 1.01.82s-1.47.15-1.86-.03c-1.07-.49-1.28-1.09-2.49-1.9a7 7 0 0 0-3.97-1q.33.39.58.78c1.48 2.29.28 2.43.59 3.23.12.3 1.63.84 1.64 1.25 0 .41-.87.19-.8.5.12.5 1.38.8 1.52 1.04.12.22-1.16.02-1.04.23.23.39 2.26 1.26 2.46 1.58.26.42-.84.35-.68.67.13.28 2.07 1.05 2.29 1.28.28.32-.67.34-.34.59.77.57 3.15 1.4 4.6 1.81.96.28 2.56.71 3.09.8.25.64.8 2 1.62 3.34 1.18 1.94 2.35 3 2.65 3.14.31.14 1.03.32 1.03.32s.63.16.7.21c.08.07.2.28.3.51.13.34.46 1.2.38 1.31-.07.08-.24.04-.33.02-.2-.04-.63-.22-1.2-.66l-.99-.89c-.64-.58-2.18-1.81-2.21-1.96-.08-.14.37-.26.26-.39-.14-.15-.82-.1-1.16-.24-.4-.15-.88-.37-1.03-.6-.11-.16.73-.33.72-.51s-1.48-.4-3.18-1.09c-1.7-.68-2.73-1.99-3.01-1.99-.2 0-.14.84-.33.89-.24.05-.08-.08-.44-.64-.4-.6-.58-.63-.77-.6-.18.02-.02 1.02-.26 1.05s-.9-1.02-1.18-1c-.2.02.07.73-.1.77s-.4-.37-.95-.73c-.56-.35-.98-.44-1.1-.38-.15.06.17.3.35.5.13.12.34.3.18.41-.14.1-.78-.14-1.37-.2-.63-.07-1.31.05-1.45-.11-.08-.1.18-.2.34-.4.2-.24.47-.6.18-.6-.19 0-.72.29-1.25.44-.54.16-1.55.27-1.57.16-.01-.1.47-.23.88-.46.45-.26.77-.6.62-.7-.16-.11-.88.17-1.67.18-.96.01-1.88-.25-1.9-.42-.03-.25.16-.17.69-.43.4-.2.67-.52.5-.67-.14-.14-1.65.13-3.38-.68a7.4 7.4 0 0 1-3.3-2.64c-.84-1.23-.63-1.92-.8-2.11-.21-.27-.67.2-.73.98-.08.93.43 1.27.06 1.35-.18.03-.8-.28-1.19-1.1-.46-1-.02-1.63-.13-1.87-.1-.21-.72.06-1 .65-.26.6-.34 1.08-1.16 1.27-1.3.32-1.54-1.36-1.98-1.26-.5.1-.13 1.8-.55 2.03-.36.2-.46-.17-.84-.5s-1.05-.6-1.27-.52c-.4.16.39.39.23 1.07-.09.35-.48.66-1.07.75-.61.1-1.05-.05-1.72-.34a3 3 0 0 1-1.28-1c-.19-.25-.43-.24-.37.37.08.72.64.89.64 1.05s-.47.2-1.04.04c-.57-.15-1.03-.58-1.18-.52s-.2.42.33.93c.39.37.84.36.75.57s-1.07.25-1.78-.38c-.96-.84-.37-2.25-.65-2.36-.19-.07-.61.36-.68 1-.06.58.11.9-.02.99-.15.1-.66-.2-.79-.88-.17-.91.04-1.14-.17-1.16-.2-.03-.76.27-.63 1.6.11 1.11-.1 1.5-.38 1.76a2.4 2.4 0 0 1-1.75.56c-1.36-.07-1.71-.42-2.14-.21-.35.17 1.16 1.05.63 1.25-.36.13-1.24-.08-1.73-.23-.32-.1-.84-.25-.52.24.65.98-.5.76-1.1.75-1.64-.05-3.44-1.18-4.9-1.47-1.22-.25-2.7-.6-4.83.65-.73.42-2.22 1.24-2.62 1.82s-.59.66-.77.69a9 9 0 0 1-1.91.04q-.15 0-.17-.13m1.92-21.66c-.06.12-.12.2-.27.22a.6.6 0 0 1-.51-.13c-.18-.13.01-.34.26-.47.28-.14.56-.24.61-.01.02.1-.05.3-.1.4M87.6 29.88c.07.47.92.45 1.3.45.5 0 1.03-.03 1.46-.08.67-.08.97-.43 1.24-.94.27-.5 1.3-1.16 1.9-1.5 1.02-.54 1.96-1.13 3.16-.9 1.29.25 2.95.77 4.02 1.3 1.58.78 2.26 1.1 3.56 1.42 1.63.39 3.38.6 3.52.39.13-.19-.4-.23-.84-.47-.25-.14-.61-.54-.47-.62.16-.08.65.27 1.64.43 1 .17 2.23.22 2.24.02s-.64-.19-1.17-.44c-.58-.26-.94-.59-.8-.67.1-.07.75.2 1.78.32 1.13.13 2.15 0 2.21-.18.07-.2-.53-.16-1.2-.42-.69-.26-.97-.62-.87-.7s2.24.64 4.63.15a34 34 0 0 0 6.17-2.1 13 13 0 0 1 5.34-1c1.7.18 2.47.67 3.69 1.43 1.95 1.21 2.74 2.08 3.32 2.6.68.61 1.34 1.29 2 1.57.8.33 1.34.3 2.28.3.52.01 1.25 0 1.85.17.92.26 1.37.61 1.77.9.56.4.84.78 1.65 1.6 1.2 1.17 2.72 3.1 3.2 3.56.49.5.91.88 1.3.99.42.1.98.1 1.2 0 .2-.08.4-.32.3-.72-.1-.42-.51-1.36-.69-1.56s-.47-.3-.88-.43c-.34-.1-.6-.3-.9-.56-.38-.32-1.28-1.78-2.1-3.54 1.74.24 3.43.66 5.36 1.54 1.48.68 2.28 1.26 3.54 2.24 1.32 1.02 3.07 2.75 3.6 3.16.55.43 1.11.74 1.51.8.42.05.6.06.81-.07.18-.1.37-.3.28-.74-.08-.43-.4-1.29-.51-1.56a1.5 1.5 0 0 0-.4-.64c-.2-.17-.56-.25-.97-.35l-.88-.23a11 11 0 0 1-2.4-2.93 22 22 0 0 1-1.63-3.4.3.3 0 0 0-.27-.22 22 22 0 0 1-2.58-.58c-1.8-.53-3.1-1.11-3.3-1.37-.26-.32 1.03.01.85-.39-.13-.28-1.51-.4-2.54-1.24-.44-.35-1.05-.77-.84-1.02.13-.15 1.45.27 1.25-.19-.14-.31-1.35-.77-1.94-1.36-.64-.64-.7-.92-.9-1.34-.21-.48 1.31.17 1.23-.3-.06-.33-1.38-.72-1.96-1.43-.23-.28-.55-.63-.73-.94l-.5-.82c.36.04.9.17 1.44.56.82.59 1.74.88 2.89.92.86.04 3.13-.3 3.16-.6.02-.25-.34-.23-.68-.45-.35-.23-.57-.42-.5-.55.08-.14.72.15 1.44.2.79.07 1.34.1 2.13-.09.88-.21 1.83-.66 1.85-.85.01-.19-.26-.17-.56-.34-.36-.2-.53-.4-.43-.51.13-.15 1.46.2 2.63-.13.55-.17.73-.32.7-.46s-.19-.09-.47-.25c-.22-.12-.36-.27-.25-.4.12-.14 1.31.12 2.25-.26.68-.27 1.16-.56 1.1-.78-.05-.14-.31-.1-.53-.16-.2-.06-.47-.12-.4-.3s1.48-.14 2.21-.5a13 13 0 0 0 2.04-1.74c.56-.55 1.1-1.17.94-1.36-.15-.17-4.7.97-6.69 1.7-2.46.9-5.18 2.05-8.16 2.5-3.01.45-3.89.05-5.69-.1-1.98-.16-3.04-.03-3.6.02a9 9 0 0 0-1.62-.87 18 18 0 0 0-4.3-1.04c-3.12-.38-5.34-.46-7.62-.7a87 87 0 0 1-10.08-1.54c-1.1-.24-1.9-.56-2.49-.78-.59-.23-1.02-.44-1.57-.74s-.83-.58-.83-.58c.46-.38.8-.74 1.88-1.1.71-.25 1.6-.08 1.7-.3.08-.15-.27-.43-1.3-.6-1.03-.15-1.63 0-1.76-.15-.13-.16.1-.3.85-.44.73-.15 1.18 0 1.25-.2.06-.16-.27-.38-1.53-.5-.78-.06-1.61.04-1.69-.14-.08-.2.45-.34 1-.41.81-.11 1.32.05 1.32-.21 0-.22-1.01-.53-2.26-.62-.9-.06-1.48.05-2.43.19a5 5 0 0 1-1.89.02 3 3 0 0 1-1.13-.55 4 4 0 0 0-1.38-.68c-.82-.2-1.33-.04-1.67.02-.48.08-3.16.9-3.92 1.2-.77.3-1.12.52-1.44.78s-.49.44-.6.76c-.15.38-.03.92-.2 1.24a.7.7 0 0 1-.63.43c-.2.03-.44.1-.8.24-.5.2-2.46 1.05-2.46 1.05-.37.1-.48.18-.6.3q-.17.13-.11.43c.07.26.4.38.4.38s-.02.57.6.96c.32.2.75.58 1.37.79.81.24 1.77-.03 1.77-.03s-.37.22-.52.39q-.31.37-.37 1.54c0 .2-.02.38.18.57.1.1.39.07.47 0s.2-.27.2-.27.65.24.86.26q.3.04.5-.05c.14-.06.52-.24.8-.35s2.26-.75 2.66-.81c.38-.06.56.01.94-.01.43-.02.61-.15 1-.05a3.5 3.5 0 0 1 1.3.73c.35.34.7 1 .7 1q.04.07.01.27c-.02.14-.27.53-.5 1.2-.26.78-.37 1.43-.13 1.45.13.01.23-.36.58-.69s.62-.45.72-.4.08.64-.16 1.14c-.3.63-.53.94-.48 1.08.03.07.26.07.6-.07.25-.1.4-.4.48-.34.1.07-.18.62-.47 1.1-.21.37-.6.65-.55.87.03.16.35.2.64.17.31-.05.67-.27.7-.13.03.1-.2.52-.6.94-.36.4-.68.75-1.1.81-2.27.23-5.55.55-5.99.62-.7.1-1.51.17-2.1.65-.8.67-1.23.8-2.13 1.36-.95.59-1.02.67-2.03 1.1-.49.2-1.3.39-1.54.87-.12.26-.24.52-.18.9.06.37.85.35 1.16.35q.63-.02 1.18-.06c.4-.04.79-.49 1-.77.29-.37.76-.75 1.33-1.03.72-.35 1.6-.44 2.44-.34-1.02 1.02-1.61 1.68-2.64 2.31-1.23.77-1.32.95-2.5 1.45-.6.26-1.6.48-1.9 1.08-.16.32-.18.63-.1 1.1"/>
  <path fill="#c4122e" d="M104.72 5.7c0-.33-.81-.34-1.63-.7-.94-.4-1.47-.89-1.59-.75-.14.15.22.64 1.3 1.25.79.45 1.93.54 1.92.2m-4.8 2.4c.2.2.35.38.45.38s.17-.11.37-.41c.15-.22.13-.19.13-.32 0-.14-.25-.3-.53-.62-.26-.3-.4-.61-.52-.61s-.16.2-.22.52q-.08.4-.03.58c.03.13.14.26.35.47m-1.73-3.43c.08.04.03.12-.02.2-.07.12-.74.89-.75 1.42 0 .6.7 1.32.65 1.41s-.27-.01-.57 0-.44.07-.52.05c-.07-.02-.22-.86-.1-1.52.12-.67.78-1.23.92-1.35.12-.12.32-.24.39-.21m-4.13 2.96c.1.06.1.33.06.52-.05.2-.11.33-.34.38-.2.04-.4-.12-.4-.24q-.01-.2.26-.49c.18-.19.33-.22.42-.17m1.42.32c0 .09.1.15.21.15q.2-.01.22-.16c0-.08-.1-.15-.22-.14s-.22.07-.21.15m-.88.39c0 .08.1.15.21.15q.2-.01.21-.16c0-.08-.1-.15-.21-.15q-.2.02-.22.16m1.07-2.54c-.56.2-1.01.22-1.04.16q-.05-.04.12-.15l.2-.12-.06-.23c-.05-.34.05-.59.05-.59s.34-.04.73.1c.45.15.68.33.68.42 0 .07-.22.24-.68.4m.74-1.33c-.05.12-.41-.15-.9-.1-.63.04-.69.22-.77.22s-.12-.19.1-.33c.18-.12.33-.19.64-.2.57 0 .96.29.92.41m43.52 20.78c.73.25 2 0 1.88.33-.13.37-1.83.57-3.3.17-1.2-.32 1.22-1.03.97-1.57-.17-.4-1.98.25-2.25-.15-.31-.46 1.35-1.24 1.1-1.56-.21-.28-1.39.38-1.74.23-.32-.13-.03-.66.17-1.13.3-.68.63-.97.48-1.1-.22-.22-1.35.34-1.51.1-.17-.26.33-.69.79-1.08.41-.36.83-.65.8-.85-.07-.44-1.97.47-2.12.05-.19-.51 1.01-1.4 1.43-1.98.41-.6-1.23-1.51-.87-1.75.34-.22 2.01 1.18 2.07 1.62.06.43-1.54 1.1-1.46 1.43.05.17.59 0 1.08 0q.74 0 .82.2c.06.1-.16.46-.47.82-.3.37-.58.57-.58.74.01.23 1.12-.17 1.16.15.06.4-.9 1.4-.65 1.73.1.13.58.08.96-.05.34-.12 1.01-.27.81.27-.23.63-.71 1.23-.56 1.43.22.28 2.2-.18 2.08.57-.04.26-1.75 1.14-1.09 1.38m-9.06-11.08c-1.13-.4-1.85-.29-1.93-.57-.08-.31.98-.36 2.35-.1 1.55.31 1.8.53 1.82.95.02.55-1.17 2.55-.88 2.76s1.67-.77 1.75-.48c.08.28 0 .74-.17 1.21-.22.63-.53 1.44-.4 1.6.2.22 1.26-.16 1.4.1.14.27-.34.68-.84 1.03-.44.32-.94.44-.91.64.06.39 1.98-.23 2.1.2.13.53-.95.84-1.42 1.63-.47.81 2.35.94 2.01 1.42-.23.33-1.29.2-2.12-.12-.76-.3-1.27-.65-1.3-1-.05-.44 1.67-1.09 1.61-1.42-.03-.17-.45-.04-.94-.1q-.8-.13-.97-.4c-.18-.25 1.43-.8 1.42-1.33 0-.31-1.22.19-1.26-.11-.07-.39.99-1.86.84-2.06-.08-.11-.44 0-.84.34-.29.26-.62.4-.76.34-.14-.07-.07-.96.12-1.78.14-.62.35-1.12.45-1.45.14-.47-.2-.98-1.13-1.3M123.37 13c-1.43.12-2.51.57-2.75.33s.93-.91.55-1.08c-.49-.23-1.57.28-2.56.49-1 .2-2.34.42-2.61.27-.28-.16 1.02-.73 1.16-1.04.18-.42-1.65-.49-2.93-.75-1.87-.37-3.07-1-3.06-.7 0 .42.85.77 1.96 1.17 1.08.4 2.1.38 2.13.77.01.2-1.45.66-1.36.92.1.33 1.43.48 2.53.43 1.61-.07 2.85-.8 3.15-.58.25.18 0 .54-.15.87-.18.38-.34.7-.07.86s1.47-.8 3.58-1.16c2.08-.36 3.55-.12 3.54-.51 0-.28-1.58-.43-3.1-.3m-11.58 7.46c.35.53 1.39-.77 1.95-.76.33 0-.19 1.87.19 1.91.78.1 2.23-2.29 2.64-2.24.55.08-.33 1.6.06 1.73.53.17 1.11-.63 1.95-1.34.85-.72 1.76-1.24 2.07-1.2.31.03-.58 1.13-.59 1.48 0 .22.69.01 1.51-.43.48-.26 1.27-.94 1.74-1 .46-.04.07 1.27.48 1.26 1.4-.05 2.63-1.76 2.51-2-.15-.32-1.17 1-1.97 1.02-.26 0 .22-1.31-.05-1.4-.63-.2-2.38 1.54-2.74 1.3-.17-.12.72-1.17.54-1.37-.23-.26-1.53.12-2.5.72-1.36.85-1.67 1.39-1.9 1.36q-.28-.01.01-.79c.13-.3.37-.91-.05-.98-.26-.04-1.14.63-1.7 1.1s-1.12 1.1-1.26 1.06c-.33-.11.3-1.57-.12-1.64-.5-.07-1.76 1.4-2.11 1.3-.48-.15-.63-2.44-1.03-1.97-.29.32-.12 2.12.37 2.88"/>
  <path fill="#00875d" d="M63.64 41h-1.99l-1.12 5.28h2.09c1.64 0 2.79-.88 3.19-2.77.41-1.97-.4-2.5-2.17-2.5m-1 7.87h-2.66l-1.3 6.18h2.45c2.08 0 3.31-.93 3.8-3.22.48-2.28-.48-2.96-2.3-2.96m-1.4 8.78H54l4.07-19.18h7.48c3.14 0 5.02 1.2 4.32 4.53-.63 2.94-2.48 4.15-4.13 4.3l-.03.16c1.91 0 3.97 1.04 3.25 4.43-.85 4.03-3.67 5.76-7.72 5.76m15.87.24c-4.44 0-6.47-1.64-5.4-6.69l2.05-9.67h4.07l-2.1 9.9c-.57 2.7.2 3.6 2.45 3.6.64 0 1.26-.05 2.1-.2l2.83-13.31h4.07l-3.3 15.59c-2.13.32-4.78.77-6.77.77m13.52.11c-1.52 0-3-.2-4.28-.44l.56-2.6c.91.08 2.48.22 3.75.22 1.92 0 3.2-.43 3.52-1.92.72-3.36-6.38-2.42-5.3-7.53.71-3.33 3.83-4.63 7.15-4.63 1.44 0 2.96.25 4.39.61l-.86 2.33c-1.03-.07-2.44-.2-3.3-.2-1.72 0-2.9.25-3.2 1.69-.64 2.96 6.46 1.92 5.34 7.2-.7 3.26-3.33 5.27-7.77 5.27m30.34-.38 3.42-16.11h4.07l-3.42 16.1zm13.97-13.42-2.85 13.41h-4.07l3.3-15.56c1.98-.3 5.45-.6 7.66-.7l-.56 2.63c-1.33.03-2.13.12-3.48.22m43.59 13.4 2.11-9.97c.55-2.6-.09-3.64-2.35-3.64h-2.47l-2.89 13.6h-4.07l3.3-15.53c2.33-.38 5.14-.8 7.38-.8 4.61 0 6.07 2.14 5.07 6.88l-2 9.45zm16.47-.02 2.12-9.96c.55-2.6-.1-3.64-2.35-3.64h-2.48l-2.88 13.6h-4.08l3.3-15.53c2.34-.38 5.15-.8 7.38-.8 4.62 0 6.08 2.14 5.07 6.88l-2 9.45zm-82.94-21.06s1.66-3.31 5.18-2.35c2.92.79 4.98-.32 4.98-.32s-2.12 3.24-5.32 2.42c-3.44-.9-4.84.25-4.84.25m6.14 21.1h-11.21l4.06-19.18h11.07l-.54 2.53h-7l-1.16 5.54h4.68l-.53 2.5h-4.69l-1.27 6.02h7.44zm28.85-13.72c-2.23 0-3.1 1.92-3.65 4.51h5.37c.56-2.63.56-4.52-1.72-4.51M143 50.92c-.7 3.25.53 4.18 3.4 4.17.91 0 2.02-.1 3.54-.28l-.89 2.72a33 33 0 0 1-4.43.42c-4.36 0-7.12-1.83-5.73-8.38 1.2-5.64 4.45-8.35 8.76-8.35 5.36 0 6.16 3.23 4.8 9.7zm20.61-1.14h-2.1c-1.95 0-3.1.54-3.5 2.49-.45 2.09.47 2.73 2.38 2.73h2.12zm2.44 7.5c-2.22.29-4.6.66-6.72.66-3.88 0-6.4-1.21-5.48-5.53.9-4.23 3.81-5.25 6.93-5.25.96 0 2.51.2 3.27.31.54-2.54-.1-3.56-2.93-3.55-.93 0-2.23.11-3.62.22l.27-2.56c1.54-.2 3.7-.37 5.28-.37 3.9 0 6.06 1.6 5.1 6.12z"/>
</svg>
